{
  "accessors": [
    {
      "bufferView": 2,
      "componentType": 5126,
      "count": 51,
      "max": [
        3.5,
        0.5,
        3.5
      ],
      "min": [
        -3.5,
        0.0,
        -8.0
      ],
      "type": "VEC3"
    },
    {
      "bufferView": 2,
      "byteOffset": 612,
      "componentType": 5126,
      "count": 51,
      "max": [
        1.0,
        1.0,
        1.0
      ],
      "min": [
        -1.0,
        -1.0,
        -0.6585046052932739
      ],
      "type": "VEC3"
    },
    {
      "bufferView": 1,
      "componentType": 5126,
      "count": 51,
      "max": [
        7.5,
        5.75
      ],
      "min": [
        -5.75,
        -5.75
      ],
      "type": "VEC2"
    },
    {
      "bufferView": 1,
      "byteOffset": 408,
      "componentType": 5126,
      "count": 51,
      "max": [
        0.0,
        1.0
      ],
      "min": [
        0.0,
        1.0
      ],
      "type": "VEC2"
    },
    {
      "bufferView": 0,
      "componentType": 5125,
      "count": 126,
      "type": "SCALAR"
    }
  ],
  "asset": {
    "extras": {
      "author": "mobileEY (https://sketchfab.com/mobileEY)",
      "license": "CC-BY-4.0 (http://creativecommons.org/licenses/by/4.0/)",
      "source": "https://sketchfab.com/3d-models/arrow-v1-9c5b6c4ddbcc496a809e50e1fa019d6a",
      "title": "Arrow V1"
    },
    "generator": "Sketchfab-12.68.0",
    "version": "2.0"
  },
  "bufferViews": [
    {
      "buffer": 0,
      "byteLength": 504,
      "name": "floatBufferViews",
      "target": 34963
    },
    {
      "buffer": 0,
      "byteLength": 816,
      "byteOffset": 504,
      "byteStride": 8,
      "name": "floatBufferViews",
      "target": 34962
    },
    {
      "buffer": 0,
      "byteLength": 1224,
      "byteOffset": 1320,
      "byteStride": 12,
      "name": "floatBufferViews",
      "target": 34962
    }
  ],
  "buffers": [
    {
      "byteLength": 2544,
      "uri": "scene.bin"
    }
  ],
  "materials": [
    {
      "doubleSided": true,
      "name": "Material",
      "pbrMetallicRoughness": {
        "baseColorFactor": [
          0.166171,
          0.736122,
          0.188989,
          1.0
        ],
        "metallicFactor": 0.0,
        "roughnessFactor": 0.7009302437557559
      }
    }
  ],
  "meshes": [
    {
      "name": "Body1_Material_0",
      "primitives": [
        {
          "attributes": {
            "NORMAL": 1,
            "POSITION": 0,
            "TEXCOORD_0": 2,
            "TEXCOORD_1": 3
          },
          "indices": 4,
          "material": 0,
          "mode": 4
        }
      ]
    }
  ],
  "nodes": [
    {
      "children": [
        1
      ],
      "matrix": [
        1.0,
        0.0,
        0.0,
        0.0,
        0.0,
        2.220446049250313e-16,
        -1.0,
        0.0,
        0.0,
        1.0,
        2.220446049250313e-16,
        0.0,
        0.0,
        0.0,
        0.0,
        1.0
      ],
      "name": "Sketchfab_model"
    },
    {
      "children": [
        2
      ],
      "matrix": [
        1.0,
        0.0,
        0.0,
        0.0,
        0.0,
        0.0,
        1.0,
        0.0,
        0.0,
        -1.0,
        0.0,
        0.0,
        0.0,
        0.0,
        0.0,
        1.0
      ],
      "name": "feef4b76ef794d15b1cb6b3ee74f5271.fbx"
    },
    {
      "children": [
        3
      ],
      "name": "RootNode"
    },
    {
      "children": [
        4
      ],
      "matrix": [
        0.10000000149011612,
        0.0,
        0.0,
        0.0,
        0.0,
        0.10000000149011612,
        0.0,
        0.0,
        0.0,
        0.0,
        0.10000000149011612,
        0.0,
        0.0,
        0.0,
        0.0,
        1.0
      ],
      "name": "arrow v1"
    },
    {
      "children": [
        5
      ],
      "matrix": [
        10.0,
        0.0,
        0.0,
        0.0,
        0.0,
        10.0,
        0.0,
        0.0,
        0.0,
        0.0,
        10.0,
        0.0,
        0.0,
        0.0,
        0.0,
        1.0
      ],
      "name": "Body1"
    },
    {
      "mesh": 0,
      "name": "Body1_Material_0"
    }
  ],
  "scene": 0,
  "scenes": [
    {
      "name": "Sketchfab_Scene",
      "nodes": [
        0
      ]
    }
  ]
}
